<?xml version="1.0" encoding="UTF-8" standalone="no"?> <svg width="64" height="64" viewBox="0 0 64 64" fill="none" xmlns="http://www.w3.org/2000/svg">
<path d="M7.27 26.3198C6.73957 26.3198 6.23086 26.5305 5.85579 26.9056C5.48071 27.2807 5.27 27.7894 5.27 28.3198V29.9998H4C3.46957 29.9998 2.96086 30.2105 2.58579 30.5856C2.21071 30.9607 2 31.4694 2 31.9998C2 32.5303 2.21071 33.039 2.58579 33.414C2.96086 33.7891 3.46957 33.9998 4 33.9998H5.27V35.6798C5.27 36.2103 5.48071 36.719 5.85579 37.094C6.23086 37.4691 6.73957 37.6798 7.27 37.6798C7.80043 37.6798 8.30914 37.4691 8.68421 37.094C9.05929 36.719 9.27 36.2103 9.27 35.6798V28.3198C9.27 27.7894 9.05929 27.2807 8.68421 26.9056C8.30914 26.5305 7.80043 26.3198 7.27 26.3198Z" fill="#1F75B8"/>
<path d="M12.8301 19.8901C12.2996 19.8901 11.7909 20.1009 11.4159 20.4759C11.0408 20.851 10.8301 21.3597 10.8301 21.8901V42.1101C10.8301 42.6406 11.0408 43.1493 11.4159 43.5243C11.7909 43.8994 12.2996 44.1101 12.8301 44.1101C13.3605 44.1101 13.8692 43.8994 14.2443 43.5243C14.6194 43.1493 14.8301 42.6406 14.8301 42.1101V21.8901C14.8301 21.3597 14.6194 20.851 14.2443 20.4759C13.8692 20.1009 13.3605 19.8901 12.8301 19.8901Z" fill="#1F75B8"/>
<path d="M51.3799 19.8901C50.8494 19.8901 50.3407 20.1009 49.9657 20.4759C49.5906 20.851 49.3799 21.3597 49.3799 21.8901V42.1101C49.3799 42.6406 49.5906 43.1493 49.9657 43.5243C50.3407 43.8994 50.8494 44.1101 51.3799 44.1101C51.9103 44.1101 52.419 43.8994 52.7941 43.5243C53.1692 43.1493 53.3799 42.6406 53.3799 42.1101V21.8901C53.3799 21.3597 53.1692 20.851 52.7941 20.4759C52.419 20.1009 51.9103 19.8901 51.3799 19.8901Z" fill="#1F75B8"/>
<path d="M45.8199 14C45.2895 14 44.7808 14.2107 44.4057 14.5858C44.0306 14.9609 43.8199 15.4696 43.8199 16V30H20.3899V16C20.3899 15.4696 20.1792 14.9609 19.8041 14.5858C19.429 14.2107 18.9203 14 18.3899 14C17.8595 14 17.3508 14.2107 16.9757 14.5858C16.6006 14.9609 16.3899 15.4696 16.3899 16V48C16.3899 48.5304 16.6006 49.0391 16.9757 49.4142C17.3508 49.7893 17.8595 50 18.3899 50C18.9203 50 19.429 49.7893 19.8041 49.4142C20.1792 49.0391 20.3899 48.5304 20.3899 48V34H43.8199V48C43.8199 48.5304 44.0306 49.0391 44.4057 49.4142C44.7808 49.7893 45.2895 50 45.8199 50C46.3503 50 46.859 49.7893 47.2341 49.4142C47.6092 49.0391 47.8199 48.5304 47.8199 48V16C47.8199 15.4696 47.6092 14.9609 47.2341 14.5858C46.859 14.2107 46.3503 14 45.8199 14Z" fill="#1F75B8"/>
<path d="M60.2099 29.9998H58.9299V28.3198C58.9299 27.7894 58.7192 27.2807 58.3441 26.9056C57.9691 26.5305 57.4604 26.3198 56.9299 26.3198C56.3995 26.3198 55.8908 26.5305 55.5157 26.9056C55.1406 27.2807 54.9299 27.7894 54.9299 28.3198V35.6798C54.9299 36.2103 55.1406 36.719 55.5157 37.094C55.8908 37.4691 56.3995 37.6798 56.9299 37.6798C57.4604 37.6798 57.9691 37.4691 58.3441 37.094C58.7192 36.719 58.9299 36.2103 58.9299 35.6798V33.9998H60.2099C60.7404 33.9998 61.2491 33.7891 61.6241 33.414C61.9992 33.039 62.2099 32.5303 62.2099 31.9998C62.2099 31.4694 61.9992 30.9607 61.6241 30.5856C61.2491 30.2105 60.7404 29.9998 60.2099 29.9998Z" fill="#1F75B8"/>
</svg>
